<svg width="300" height="300" viewBox="0 0 300 300" fill="none" xmlns="http://www.w3.org/2000/svg">
  <rect width="300" height="300" fill="white"/>
  <circle cx="150" cy="150" r="120" fill="#F8F9FA"/>
  <path d="M170 100C170 88.9543 161.046 80 150 80C138.954 80 130 88.9543 130 100V150C130 161.046 138.954 170 150 170C161.046 170 170 161.046 170 150V100Z" fill="#7E57C2"/>
  <path d="M186.5 117.5L186.5 150C186.5 170.158 170.158 186.5 150 186.5C129.842 186.5 113.5 170.158 113.5 150L113.5 117.5" stroke="#424242" stroke-width="5" stroke-linecap="round"/>
  <path d="M150 186.5V200" stroke="#424242" stroke-width="5" stroke-linecap="round"/>
  <path d="M126 220H174" stroke="#424242" stroke-width="5" stroke-linecap="round"/>
  <path d="M200 100L220 80" stroke="#F06292" stroke-width="5" stroke-linecap="round"/>
  <path d="M100 100L80 80" stroke="#F06292" stroke-width="5" stroke-linecap="round"/>
  <circle cx="150" cy="100" r="30" stroke="#424242" stroke-width="5"/>
  <path d="M140 100L150 110L170 90" stroke="#4CAF50" stroke-width="3" stroke-linecap="round" stroke-linejoin="round"/>
</svg>
